HIERARCHY
ROOT Hips
{
  OFFSET 0 0.240689 0
  CHANNELS 6 Xposition Yposition Zposition Zrotation Xrotation Yrotation
  JOINT Bip01_Spine0
  {
    OFFSET 0 -24.7459 49.7988
    CHANNELS 6 Xposition Yposition Zposition Zrotation Xrotation Yrotation
    JOINT Bip01_Pelvis
    {
      OFFSET 0 0 0
      CHANNELS 6 Xposition Yposition Zposition Zrotation Xrotation Yrotation
      JOINT Bip01_Spine0_Tail
      {
        OFFSET -6.47486 -3.86022 0
        CHANNELS 6 Xposition Yposition Zposition Zrotation Xrotation Yrotation
        JOINT Bip01_Spine0_Tail1
        {
          OFFSET 10.3837 -0.00825882 0
          CHANNELS 6 Xposition Yposition Zposition Zrotation Xrotation Yrotation
          JOINT Bip01_Spine0_Tail2
          {
            OFFSET 10.3837 -0.00826263 0
            CHANNELS 6 Xposition Yposition Zposition Zrotation Xrotation Yrotation
            JOINT Bip01_Spine0_Tail3
            {
              OFFSET 10.3837 -0.00825882 0
              CHANNELS 6 Xposition Yposition Zposition Zrotation Xrotation Yrotation
              JOINT Bip01_Spine0_Tail4
              {
                OFFSET 10.3837 -0.00826263 0
                CHANNELS 6 Xposition Yposition Zposition Zrotation Xrotation Yrotation
                End Site
                {
                  OFFSET 0 0 0
                }
              }
            }
          }
        }
      }
      JOINT Bip01_R_Thigh
      {
        OFFSET 0 -1.52588e-005 -8.75617
        CHANNELS 6 Xposition Yposition Zposition Zrotation Xrotation Yrotation
        JOINT Bip01_R_Calf
        {
          OFFSET 19.7638 0 0
          CHANNELS 6 Xposition Yposition Zposition Zrotation Xrotation Yrotation
          JOINT Bip01_R_Foot
          {
            OFFSET 18.6534 0 0
            CHANNELS 6 Xposition Yposition Zposition Zrotation Xrotation Yrotation
            JOINT Bip01_R_Toe0
            {
              OFFSET 5.09145 13.9567 0
              CHANNELS 6 Xposition Yposition Zposition Zrotation Xrotation Yrotation
              JOINT Bip01_R_Toe01
              {
                OFFSET 4.28803 0 0
                CHANNELS 6 Xposition Yposition Zposition Zrotation Xrotation Yrotation
                JOINT Bip01_R_Toe02
                {
                  OFFSET 3.85801 0 0
                  CHANNELS 6 Xposition Yposition Zposition Zrotation Xrotation Yrotation
                  End Site
                  {
                    OFFSET 0 0 0
                  }
                }
              }
            }
          }
        }
      }
      JOINT Bip01_L_Thigh
      {
        OFFSET 0 1.52588e-005 8.75617
        CHANNELS 6 Xposition Yposition Zposition Zrotation Xrotation Yrotation
        JOINT Bip01_L_Calf
        {
          OFFSET 19.7638 0 0
          CHANNELS 6 Xposition Yposition Zposition Zrotation Xrotation Yrotation
          JOINT Bip01_L_Foot
          {
            OFFSET 18.6534 0 0
            CHANNELS 6 Xposition Yposition Zposition Zrotation Xrotation Yrotation
            JOINT Bip01_L_Toe0
            {
              OFFSET 5.09144 13.9567 0
              CHANNELS 6 Xposition Yposition Zposition Zrotation Xrotation Yrotation
              JOINT Bip01_L_Toe01
              {
                OFFSET 4.28802 0 0
                CHANNELS 6 Xposition Yposition Zposition Zrotation Xrotation Yrotation
                JOINT Bip01_L_Toe02
                {
                  OFFSET 3.85801 0 0
                  CHANNELS 6 Xposition Yposition Zposition Zrotation Xrotation Yrotation
                  End Site
                  {
                    OFFSET 0 0 0
                  }
                }
              }
            }
          }
        }
      }
      JOINT Bip01_Spine
      {
        OFFSET 9.14835 -0.00640869 -1.1e-005
        CHANNELS 6 Xposition Yposition Zposition Zrotation Xrotation Yrotation
        JOINT Bip01_Spine1
        {
          OFFSET 8.04366 -0.00638199 0
          CHANNELS 6 Xposition Yposition Zposition Zrotation Xrotation Yrotation
          JOINT Bip01_Spine2
          {
            OFFSET 8.04367 -0.00639343 0
            CHANNELS 6 Xposition Yposition Zposition Zrotation Xrotation Yrotation
            JOINT Bip01_Spine3
            {
              OFFSET 8.04304 -0.00831222 0
              CHANNELS 6 Xposition Yposition Zposition Zrotation Xrotation Yrotation
              JOINT Bip01_Neck
              {
                OFFSET 10.6685 1.06813 0
                CHANNELS 6 Xposition Yposition Zposition Zrotation Xrotation Yrotation
                JOINT Bip01_R_Clavicle
                {
                  OFFSET -3.21661 -4.89635 -9.04802
                  CHANNELS 6 Xposition Yposition Zposition Zrotation Xrotation Yrotation
                  JOINT Bip01_R_UpperArm
                  {
                    OFFSET 19.0492 0 0
                    CHANNELS 6 Xposition Yposition Zposition Zrotation Xrotation Yrotation
                    JOINT Bip01_R_Forearm
                    {
                      OFFSET 10.3706 0 0
                      CHANNELS 6 Xposition Yposition Zposition Zrotation Xrotation Yrotation
                      JOINT Bip01_R_Hand
                      {
                        OFFSET 22.8632 0 0
                        CHANNELS 6 Xposition Yposition Zposition Zrotation Xrotation Yrotation
                        JOINT Bip01_R_Finger0
                        {
                          OFFSET 6.48259 0.103651 0.504496
                          CHANNELS 6 Xposition Yposition Zposition Zrotation Xrotation Yrotation
                          JOINT Bip01_R_Finger01
                          {
                            OFFSET 3.66847 0 0
                            CHANNELS 6 Xposition Yposition Zposition Zrotation Xrotation Yrotation
                            End Site
                            {
                              OFFSET 0 0 0
                            }
                          }
                        }
                      }
                    }
                  }
                }
                JOINT Bip01_L_Clavicle
                {
                  OFFSET -3.21661 -4.89641 9.04797
                  CHANNELS 6 Xposition Yposition Zposition Zrotation Xrotation Yrotation
                  JOINT Bip01_L_UpperArm
                  {
                    OFFSET 19.0492 0 0
                    CHANNELS 6 Xposition Yposition Zposition Zrotation Xrotation Yrotation
                    JOINT Bip01_L_Forearm
                    {
                      OFFSET 10.3706 0 0
                      CHANNELS 6 Xposition Yposition Zposition Zrotation Xrotation Yrotation
                      JOINT Bip01_L_Hand
                      {
                        OFFSET 22.8631 0 0
                        CHANNELS 6 Xposition Yposition Zposition Zrotation Xrotation Yrotation
                        JOINT Bip01_L_Finger0
                        {
                          OFFSET 6.48257 0.103655 -0.504492
                          CHANNELS 6 Xposition Yposition Zposition Zrotation Xrotation Yrotation
                          JOINT Bip01_L_Finger01
                          {
                            OFFSET 3.66844 0 0
                            CHANNELS 6 Xposition Yposition Zposition Zrotation Xrotation Yrotation
                            End Site
                            {
                              OFFSET 0 0 0
                            }
                          }
                        }
                      }
                    }
                  }
                }
                JOINT Bip01_Neck1
                {
                  OFFSET 7.52459 -0.00656509 0
                  CHANNELS 6 Xposition Yposition Zposition Zrotation Xrotation Yrotation
                  JOINT Bip01_Neck2
                  {
                    OFFSET 8.4783 -0.00588226 0
                    CHANNELS 6 Xposition Yposition Zposition Zrotation Xrotation Yrotation
                    JOINT Bip01_Head
                    {
                      OFFSET 8.41606 0 0
                      CHANNELS 6 Xposition Yposition Zposition Zrotation Xrotation Yrotation
                      JOINT EyesBlue
                      {
                        OFFSET 0 0 0
                        CHANNELS 6 Xposition Yposition Zposition Zrotation Xrotation Yrotation
                        JOINT EyesBlue_2
                        {
                          OFFSET 0 -0.500007 0
                          CHANNELS 6 Xposition Yposition Zposition Zrotation Xrotation Yrotation
                          End Site
                          {
                            OFFSET 0 0 0
                          }
                        }
                      }
                      JOINT Bip01_Head2_Eyeleds
                      {
                        OFFSET 6.52751 7.61746 2.2e-005
                        CHANNELS 6 Xposition Yposition Zposition Zrotation Xrotation Yrotation
                        End Site
                        {
                          OFFSET 0 0 0
                        }
                      }
                      JOINT Bip01_Head_Muzzle
                      {
                        OFFSET 2.88628 13.9448 3.88994
                        CHANNELS 6 Xposition Yposition Zposition Zrotation Xrotation Yrotation
                        End Site
                        {
                          OFFSET 0 0 0
                        }
                      }
                      JOINT Bip01_Head1_Jaw
                      {
                        OFFSET 0.271065 1.32405 0
                        CHANNELS 6 Xposition Yposition Zposition Zrotation Xrotation Yrotation
                        JOINT _Bip01_Head11_TungeControler
                        {
                          OFFSET 4.61616 5.82872 0
                          CHANNELS 6 Xposition Yposition Zposition Zrotation Xrotation Yrotation
                          JOINT _Bip01_Ponytail3_tunge
                          {
                            OFFSET 5.17785 2.98805 0
                            CHANNELS 6 Xposition Yposition Zposition Zrotation Xrotation Yrotation
                            JOINT Bip01_Ponytail31
                            {
                              OFFSET 5.57569 0 0
                              CHANNELS 6 Xposition Yposition Zposition Zrotation Xrotation Yrotation
                              JOINT Bip01_Ponytail32
                              {
                                OFFSET 2.93165 0 0
                                CHANNELS 6 Xposition Yposition Zposition Zrotation Xrotation Yrotation
                                JOINT Bip01_Ponytail3Nub
                                {
                                  OFFSET 3.30155 0 0
                                  CHANNELS 6 Xposition Yposition Zposition Zrotation Xrotation Yrotation
                                  End Site
                                  {
                                    OFFSET 0 0 0
                                  }
                                }
                              }
                            }
                          }
                        }
                        JOINT Bip01_Head_JawNub
                        {
                          OFFSET 15.5776 -0.000389099 0
                          CHANNELS 6 Xposition Yposition Zposition Zrotation Xrotation Yrotation
                          End Site
                          {
                            OFFSET 0 0 0
                          }
                        }
                      }
                      JOINT Bip01_Ponytail2
                      {
                        OFFSET 9.40334 1.03973 -6.51764
                        CHANNELS 6 Xposition Yposition Zposition Zrotation Xrotation Yrotation
                        JOINT Bip01_Ponytail21
                        {
                          OFFSET 2.77018 -0.00640106 1.33514e-005
                          CHANNELS 6 Xposition Yposition Zposition Zrotation Xrotation Yrotation
                          End Site
                          {
                            OFFSET 0 0 0
                          }
                        }
                      }
                      JOINT Bip01_Ponytail1
                      {
                        OFFSET 9.40368 1.03969 6.51768
                        CHANNELS 6 Xposition Yposition Zposition Zrotation Xrotation Yrotation
                        JOINT Bip01_Ponytail11
                        {
                          OFFSET 2.77018 -0.00640487 0
                          CHANNELS 6 Xposition Yposition Zposition Zrotation Xrotation Yrotation
                          End Site
                          {
                            OFFSET 0 0 0
                          }
                        }
                      }
                    }
                  }
                }
              }
            }
          }
        }
      }
    }
  }
}
MOTION
Frames:	3
Frame Time:	0.0333333
-1.19167e-005 0 0 -0 -90 -0 0.001396 -24.7444 51.0022 90.0003 -0.000393103 83.0364 -3.57628e-007 4.36557e-011 -3.55271e-015 -90 9.11647e-006 -101.487 -6.34794 -3.85849 1.29204 164.107 -0.894596 -16.0143 10.383 -0.00817156 -7.53403e-005 -1.48177 0.7143 12.3183 10.3817 -0.00803498 0.000203609 -11.9863 -1.12517 11.7503 10.3842 -0.00817013 0.000713348 7.01458 -4.50721 14.2241 10.3828 -0.00794697 0.00186729 -3.73004 -12.4702 6.63858 9.53674e-006 -1.32322e-005 -8.75617 -87.782 -10.2953 -174.885 19.7638 1.90735e-006 -8.9407e-007 -62.686 0.000791541 0.00326 18.6534 4.29153e-006 2.6226e-006 -42.5578 2.68806 7.15168 5.09144 13.9567 -1.26479e-006 108.018 2.57954 -4.28525 4.288 -1.42109e-014 -1.90735e-006 51.5019 0.00078734 0.000272825 3.85804 -7.62939e-006 1.43051e-006 -45 -8.16982e-006 8.774e-006 -1.52588e-005 1.3113e-005 8.75617 -77.8758 -11.7172 177.527 19.7638 1.90735e-006 2.98023e-007 -78.0399 -0.00036955 -0.00354199 18.6534 -7.6294e-006 1.78814e-007 -38.4402 -0.743227 -6.25117 5.09144 13.9567 -4.24678e-007 81.6087 -3.3742 3.69144 4.28801 1.14441e-005 2.86102e-006 -18.4998 0.00150536 0.00208936 3.858 -5.72205e-006 4.76838e-007 -2.5 -1.7252e-005 -8.53741e-007 8.96338 -0.0062148 -1.82337 -11.7252 -4.22828 21.9933 8.04382 -0.00629157 9.15527e-005 2.47645 -0.352021 -5.56366 8.04383 -0.00629949 9.7974e-005 0.981512 0.1953 -2.06675 8.04404 -0.00830781 0.000174522 2.65581 -0.718664 -3.0237 10.6701 1.06797 2.25507e-006 2.10019 -1.26887e-006 -1.74849e-005 -4.40177 -3.86764 -9.04794 177.86 -85.4181 138.007 19.0491 -2.10851e-006 6.48499e-005 92.4911 19.5783 -103.233 10.3706 2.67029e-005 -9.53674e-007 -86.8869 4.88987e-006 1.76835e-006 22.8631 1.52588e-005 -3.8147e-006 19.9528 12.1164 3.54887 6.48257 0.103603 0.504504 -28.8505 -12.0849 -9.77752 3.66843 -3.81469e-006 2.32458e-006 40.1087 -2.80053e-005 3.46004e-005 -4.40148 -3.86755 9.0479 177.856 85.4168 -132.336 19.0492 -9.38772e-007 2.67029e-005 77.0225 -38.2167 76.2985 10.3705 -5.72204e-006 -1.19209e-006 -74.7223 -0.00060361 -0.00457845 22.8631 3.8147e-006 4.76837e-007 45.1191 -10.1034 8.70927 6.48255 0.103668 -0.504497 -8.97364 14.6403 5.13871 3.66846 -1.14441e-005 9.53675e-006 25.6076 0.000183291 0.000110713 7.52527 -0.00664006 2.71641e-005 -7.89883 0.00151622 0.00173881 8.47868 -0.00548315 9.13587e-005 34.1803 0.000465915 0.000239958 8.41604 8.58307e-006 5.96046e-007 -88.6688 1.19052 1.61844 -1.90735e-006 1.52588e-005 -1.49012e-006 -23.1098 1.37701e-015 90 1.16361e-008 -0.5 -3.34814e-008 47.1604 90 42.8396 -3.8147e-006 1.14441e-005 1.60956e-006 -113.549 7.01671e-015 -180 5.36567 13.4653 3.88993 -22.989 1.3702e-015 90 -3.8147e-006 1.14441e-005 1.60956e-006 -73.906 -7.01671e-015 -180 -7.62939e-006 -1.90735e-006 1.60397e-006 -138.736 4.41696e-005 -3.142e-005 0 -1.91847e-013 -1.34762e-006 156.768 -2.29721 -5.29353 -4.22773e-013 1.04904e-005 -4.76837e-007 -13.7181 -0.763518 5.57221 3.8147e-006 -1.14441e-005 -3.33786e-006 -25.1519 -11.776 9.81026 3.8147e-006 3.8147e-006 -1.19209e-006 -26.1943 1.06432e-006 7.91903e-007 15.5776 -0.000396729 -4.79862e-006 3.18055e-015 3.10601e-018 3.10601e-018 9.40367 1.03981 -6.51606 -5.81544 -20.044 20.1798 2.77012 -0.00605392 0.00208092 2.27086 -18.4996 -0.510445 9.40405 1.03969 6.5162 -5.81545 20.0468 -20.1775 2.77013 -0.00603104 -0.00202179 2.27228 18.5001 0.512012 
-1.19167e-005 0 -4.32594 -0 -90 -0 0.001396 -24.7444 53.8415 89.9995 0.000136921 90.5302 -3.57628e-007 4.36557e-011 -3.55271e-015 -90 9.11637e-006 -101.487 -6.34956 -3.85849 1.29268 175.787 -5.19967 -17.1486 10.383 -0.00817156 -7.53403e-005 -2.2061 0.546523 10.4273 10.3817 -0.00803498 0.000203609 -11.6405 -1.16655 9.85387 10.3842 -0.00817013 0.000713348 1.91483 -5.43951 11.8888 10.3828 -0.00794697 0.00186729 -4.74509 -12.596 4.51758 9.53674e-006 -1.32322e-005 -8.75617 -84.3991 -10.1659 -173.774 19.7638 1.90735e-006 -8.9407e-007 -70.0553 0.00056466 0.00326271 18.6534 4.29153e-006 2.6226e-006 -43.784 1.58745 7.40255 5.09144 13.9567 -1.76062e-006 98.144 3.43487 -3.41401 4.288 -1.42109e-014 -1.90735e-006 40.8108 0.000722802 0.00041485 3.85804 -7.62939e-006 1.43051e-006 -45 -7.82344e-006 8.71786e-006 -1.52588e-005 1.3113e-005 8.75617 -80.3469 -11.6953 177.009 19.7638 1.90735e-006 2.98023e-007 -91.7116 5.27301e-005 -0.00354168 18.6534 -7.6294e-006 1.78814e-007 -30.3921 -0.355515 -6.36706 5.09144 13.9567 -5.77173e-007 81.5803 -3.37704 3.68634 4.28801 1.14441e-005 2.86102e-006 -18.5029 0.00150522 0.00208941 3.858 -5.72205e-006 4.76838e-007 -2.5 -1.73814e-005 -8.56653e-007 8.96362 -0.0062148 -1.82351 -8.61721 -3.11182 22.0377 8.04382 -0.00629157 9.15527e-005 -2.01992 0.0916938 -5.71764 8.04383 -0.00629949 9.79738e-005 1.02652 0.191009 -2.21673 8.04404 -0.00830781 0.000174522 5.01099 -0.856012 -3.14518 10.6701 1.06797 2.46228e-006 2.10019 -1.48093e-005 -1.78923e-005 -4.40177 -3.86763 -9.04794 179.7 -87.5169 130.099 19.0491 -2.10851e-006 6.48499e-005 91.3761 16.9464 -100.309 10.3706 2.67029e-005 -9.53674e-007 -86.481 -1.62666e-006 1.71771e-006 22.8631 1.52588e-005 -3.8147e-006 10.304 9.38258 3.84088 6.48257 0.103603 0.504504 -46.1806 -8.18748 -13.2175 3.66843 -3.81469e-006 2.3246e-006 40.1081 -0.000165059 0.000151596 -4.40148 -3.86755 9.0479 177.851 85.4169 -129.974 19.0492 -9.38772e-007 2.67029e-005 79.4356 -48.0078 80.7965 10.3705 -5.72204e-006 -1.19209e-006 -65.6293 -0.00100264 -0.00457209 22.8631 3.8147e-006 4.76837e-007 28.8851 -8.98622 6.75226 6.48255 0.103668 -0.504497 -19.8836 13.381 7.7672 3.66846 -1.14441e-005 9.53675e-006 25.5315 0.000182694 0.000111093 7.52527 -0.00664006 2.71613e-005 -7.4779 0.00154278 0.00173698 8.47868 -0.00548315 9.13583e-005 27.8201 0.00045357 0.000263568 8.41604 8.58307e-006 5.96046e-007 -85.6508 0.537446 1.81102 -1.90735e-006 1.52588e-005 -1.49012e-006 -23.1098 1.37701e-015 90 1.04219e-008 -0.5 -4.12366e-008 82.9229 89.9999 7.07709 -3.8147e-006 1.14441e-005 1.60956e-006 -113.549 6.10352e-005 -180 5.21061 13.4953 3.88993 -22.989 1.3702e-015 90 -3.8147e-006 1.14441e-005 1.60956e-006 -76.1134 -1.52588e-005 -180 -7.62939e-006 -1.90735e-006 1.60397e-006 -136.887 4.40854e-005 -3.20578e-005 -3.55271e-014 -2.27374e-013 -1.34762e-006 155.293 -2.15306 -5.43137 -2.02505e-013 1.04904e-005 -4.76837e-007 -13.5994 -1.21494 4.94295 3.8147e-006 -1.14441e-005 -3.33786e-006 -25.1474 -11.8284 8.4044 3.8147e-006 3.8147e-006 -1.19209e-006 -26.1943 9.77413e-007 8.19775e-007 15.5776 -0.000396728 -4.79863e-006 9.54166e-015 -2.48481e-017 -4.34841e-017 9.40367 1.03981 -6.51606 -5.53661 -19.6829 19.621 2.77012 -0.00605392 0.00208092 2.27103 -18.5049 -0.511164 9.40405 1.03969 6.5162 -5.53733 19.6853 -19.6176 2.77013 -0.00603104 -0.00202179 2.27121 18.5069 0.513013 
-1.19167e-005 0 -16.8645 -0 -90 -0 0.001396 -24.7444 53.7812 89.9993 0.000979613 96.8249 -3.57628e-007 4.36557e-011 -1.77636e-015 -90 9.11627e-006 -101.487 -6.35106 -3.85849 1.29332 -173.412 -9.25575 -17.6728 10.383 -0.00817156 -7.53403e-005 -2.45678 0.504631 8.47221 10.3817 -0.00803498 0.000203609 -10.777 -1.10022 7.91061 10.3842 -0.00817013 0.000713349 -2.27238 -6.00134 9.52542 10.3828 -0.00794697 0.00186729 -5.07675 -12.6175 2.48695 9.53674e-006 -1.32322e-005 -8.75617 -80.3258 -9.88509 -172.575 19.7638 1.90735e-006 -8.9407e-007 -75.0329 0.000435832 0.0032622 18.6534 4.29153e-006 2.6226e-006 -44.9002 0.686018 7.50937 5.09144 13.9567 -1.73741e-006 85.8866 4.26207 -2.13993 4.288 -7.10543e-015 -1.90735e-006 27.462 0.000607239 0.000571197 3.85804 -7.62939e-006 1.43051e-006 -45 -6.61148e-006 8.66126e-006 -1.52588e-005 1.3113e-005 8.75617 -81.8722 -11.6811 176.763 19.7638 1.90735e-006 2.98023e-007 -102.803 0.000397651 -0.00354161 18.6534 -7.6294e-006 1.78814e-007 -21.447 -0.189509 -6.3983 5.09144 13.9567 -6.51019e-007 81.6343 -3.37231 3.69433 4.28801 1.14441e-005 2.86102e-006 -18.4946 0.00150498 0.00208918 3.858 -5.72205e-006 4.76837e-007 -2.5 -1.80976e-005 -8.35554e-007 8.96391 -0.0062148 -1.82374 -5.57353 -2.01696 22.0343 8.04382 -0.00629157 9.15527e-005 -5.77805 0.482407 -5.84548 8.04383 -0.00629949 9.79733e-005 1.21563 0.180784 -2.35477 8.04404 -0.00830781 0.00017452 7.22737 -0.995476 -3.25381 10.6701 1.06797 1.74491e-006 2.10019 -9.02663e-006 -1.64819e-005 -4.40177 -3.86764 -9.04794 -164.036 -89.5113 134.711 19.0491 -2.10851e-006 6.48499e-005 91.1757 14.2608 -97.9306 10.3706 2.67029e-005 -9.53674e-007 -86.0755 -1.56064e-006 1.41767e-006 22.8631 1.52588e-005 -3.8147e-006 3.94475 6.3425 3.80553 6.48257 0.103603 0.504504 -63.1078 -3.47186 -15.3155 3.66843 -3.8147e-006 2.32457e-006 40.1079 0.000100382 -7.09489e-005 -4.40148 -3.86755 9.0479 177.856 85.4207 -126.516 19.0492 -9.38772e-007 2.67029e-005 83.4492 -57.6066 87.1285 10.3705 -5.72204e-006 -1.19209e-006 -47.2218 -0.00189431 -0.00448652 22.8631 3.8147e-006 4.76837e-007 9.56085 -7.70155 5.6207 6.48255 0.103668 -0.504497 -28.8949 12.0448 9.75813 3.66846 -1.14441e-005 9.53675e-006 25.6753 0.000183925 0.000110332 7.52527 -0.00664006 2.71664e-005 -6.85411 0.00150813 0.00172237 8.47868 -0.00548315 9.13583e-005 21.3846 0.000435126 0.000286675 8.41604 8.58307e-006 5.96046e-007 -83.5556 -0.102882 1.89652 -1.90735e-006 1.52588e-005 -1.49012e-006 -23.1098 1.37701e-015 90 9.21428e-009 -0.5 -4.87526e-008 -50.9023 90 140.902 -3.8147e-006 1.14441e-005 1.60956e-006 -113.549 -3.05176e-005 -180 5.05555 13.5253 3.88993 -22.989 1.3702e-015 90 -3.8147e-006 1.14441e-005 1.60956e-006 -78.3208 -7.01671e-015 -180 -7.62939e-006 -1.90735e-006 1.60397e-006 -135.038 4.17854e-005 -3.27124e-005 -2.84217e-014 -2.20268e-013 -1.34762e-006 153.819 -2.00896 -5.56921 8.52651e-014 1.04904e-005 -4.76837e-007 -13.4905 -1.66708 4.31378 3.8147e-006 -1.14441e-005 -3.33786e-006 -25.1443 -11.8738 6.99801 3.8147e-006 3.8147e-006 -1.19209e-006 -26.1943 9.019e-007 9.88631e-007 15.5776 -0.000396728 -4.79863e-006 -3.18055e-015 9.31803e-018 -6.98852e-018 9.40367 1.03981 -6.51606 -5.25646 -19.3252 19.063 2.77012 -0.00605392 0.00208092 2.27203 -18.4933 -0.510412 9.40405 1.03969 6.5162 -5.25584 19.3277 -19.0602 2.77013 -0.00603104 -0.00202179 2.27129 18.4953 0.513274 
